<?xml version="1.0" standalone="no"?>
<!DOCTYPE svg PUBLIC "-//W3C//DTD SVG 20010904//EN"
 "http://www.w3.org/TR/2001/REC-SVG-20010904/DTD/svg10.dtd">
<svg version="1.0" xmlns="http://www.w3.org/2000/svg"
 width="184.000000pt" height="184.000000pt" viewBox="0 0 184.000000 184.000000"
 preserveAspectRatio="xMidYMid meet">
<metadata>
Created by potrace 1.14, written by Peter Selinger 2001-2017
</metadata>
<g transform="translate(0.000000,184.000000) scale(0.100000,-0.100000)"
fill="#000000" stroke="none">
<path d="M953 1373 c-29 -6 -35 -15 -66 -101 -15 -40 -34 -85 -42 -100 -14
-26 -14 -25 -15 31 0 80 -17 109 -80 142 -51 26 -98 30 -120 10 -11 -10 -17
-21 -15 -26 8 -12 -25 -162 -37 -174 -7 -7 -8 1 -3 25 12 52 13 113 3 132 -17
34 -70 52 -142 49 -42 -1 -99 -65 -115 -127 -7 -27 -15 -57 -18 -66 -5 -19
-47 -25 -57 -9 -4 5 -1 32 6 60 10 47 14 51 40 51 22 0 31 6 39 27 5 14 8 32
5 38 -5 15 -86 31 -154 30 -51 0 -54 -2 -67 -33 -14 -31 -13 -33 10 -42 28
-11 30 -19 14 -87 -9 -37 -19 -53 -40 -65 -31 -19 -45 -66 -35 -122 13 -69
-29 -66 815 -66 546 0 767 3 785 11 14 7 32 28 40 50 8 20 20 40 25 43 16 11
23 66 12 94 -7 15 -29 40 -51 56 -63 47 -66 82 -5 63 45 -14 85 3 85 35 0 43
-35 68 -95 68 -77 0 -130 -42 -142 -112 -4 -29 0 -41 27 -71 l32 -37 -146 0
c-80 0 -146 2 -146 5 0 3 25 47 55 97 31 50 55 92 53 93 -15 12 -52 25 -72 25
-19 0 -32 -11 -52 -42 -26 -40 -27 -41 -38 -20 -7 12 -22 29 -34 38 -20 14
-25 14 -52 -6 -36 -26 -37 -42 -6 -83 31 -41 46 -80 37 -96 -5 -8 -27 -11 -62
-9 l-54 3 0 98 c0 86 -2 100 -19 113 -19 13 -56 16 -103 7z m-477 -148 c-9
-64 -15 -75 -42 -75 -30 0 -31 19 -3 77 29 59 53 58 45 -2z m246 -41 c-2 -19
-10 -34 -17 -34 -10 0 -11 7 -5 30 10 34 10 34 11 58 0 16 1 15 8 -1 4 -10 5
-34 3 -53z m241 -19 c-3 -9 -8 -14 -10 -11 -3 3 -2 9 2 15 9 16 15 13 8 -4z"/>
<path d="M1415 1328 c-14 -29 -25 -58 -25 -63 0 -13 66 -39 79 -31 11 7 61 91
61 104 0 9 -32 27 -68 37 -19 6 -25 0 -47 -47z"/>
<path d="M103 902 c-37 -4 -54 -27 -52 -69 2 -28 -11 -154 -16 -163 -2 -3 -6
-33 -10 -66 -6 -56 -4 -64 18 -90 l25 -29 820 -3 c799 -2 819 -2 844 17 32 26
53 93 38 122 -9 16 -8 30 4 59 18 44 13 51 -40 54 -43 3 -48 9 -40 41 7 26 9
27 62 22 52 -4 56 -3 69 24 8 15 15 32 15 38 0 12 -31 22 -74 26 -17 1 -59 5
-93 10 -52 6 -64 5 -69 -8 -4 -12 -12 -13 -37 -6 -18 5 -66 10 -106 11 l-75 3
-8 -45 c-28 -148 -29 -150 -49 -150 -16 0 -18 3 -10 19 6 10 8 21 5 23 -2 3 3
36 11 73 9 37 14 70 11 72 -3 3 -25 8 -49 10 -43 5 -58 -2 -63 -32 -7 -37 -14
-76 -19 -117 l-7 -48 -59 0 c-64 0 -60 -6 -44 70 2 14 7 40 10 59 3 19 8 38
11 43 12 19 -85 32 -104 13 -3 -2 -12 -43 -21 -91 -17 -89 -43 -130 -34 -55 9
77 -39 137 -127 159 -58 14 -85 -1 -88 -49 -2 -19 -8 -59 -15 -89 l-12 -55
-53 -3 c-28 -2 -52 1 -52 5 0 4 7 45 16 91 9 45 15 85 12 87 -11 11 -88 12
-96 1 -9 -11 -32 -112 -36 -156 -1 -17 -9 -26 -23 -28 -19 -3 -20 0 -12 40 10
49 16 82 24 119 5 22 2 28 -17 33 -34 9 -73 7 -84 -4 -5 -5 -24 -6 -47 0 -58
13 -71 7 -87 -39 -14 -39 -17 -42 -44 -37 -16 3 -37 6 -47 6 -17 0 -18 5 -13
42 6 35 5 40 -9 35 -9 -3 -17 -3 -19 1 -2 4 -18 6 -35 4z m278 -117 c-12 -70
-18 -85 -33 -85 -10 0 -18 1 -18 3 0 14 34 114 41 122 5 5 9 17 9 27 0 10 4
18 8 18 5 0 2 -38 -7 -85z m1158 16 c9 -6 22 -6 34 1 18 9 19 7 13 -38 -7 -57
-17 -70 -44 -55 -11 6 -35 11 -52 11 -32 0 -32 1 -25 37 4 21 9 41 11 45 7 11
46 10 63 -1z m-683 -87 c-3 -8 -10 -14 -16 -14 -11 0 -5 54 8 74 9 13 16 -40
8 -60z"/>
</g>
</svg>
